<?xml version="1.0" encoding="utf-8" standalone="no"?>
<!DOCTYPE svg PUBLIC "-//W3C//DTD SVG 1.1//EN"
  "http://www.w3.org/Graphics/SVG/1.1/DTD/svg11.dtd">
<svg xmlns:xlink="http://www.w3.org/1999/xlink" width="624.150781pt" height="335.507972pt" viewBox="0 0 624.150781 335.507972" xmlns="http://www.w3.org/2000/svg" version="1.1">
 <metadata>
  <rdf:RDF xmlns:dc="http://purl.org/dc/elements/1.1/" xmlns:cc="http://creativecommons.org/ns#" xmlns:rdf="http://www.w3.org/1999/02/22-rdf-syntax-ns#">
   <cc:Work>
    <dc:type rdf:resource="http://purl.org/dc/dcmitype/StillImage"/>
    <dc:date>2026-05-08T13:03:33.560175</dc:date>
    <dc:format>image/svg+xml</dc:format>
    <dc:creator>
     <cc:Agent>
      <dc:title>Matplotlib v3.10.8, https://matplotlib.org/</dc:title>
     </cc:Agent>
    </dc:creator>
   </cc:Work>
  </rdf:RDF>
 </metadata>
 <defs>
  <style type="text/css">*{stroke-linejoin: round; stroke-linecap: butt}</style>
 </defs>
 <g id="figure_1">
  <g id="patch_1">
   <path d="M 0 335.507972 
L 624.150781 335.507972 
L 624.150781 0 
L 0 0 
z
" style="fill: #ffffff"/>
  </g>
  <g id="axes_1">
   <g id="patch_2">
    <path d="M 47.720781 280.869938 
L 616.950781 280.869938 
L 616.950781 21.943125 
L 47.720781 21.943125 
z
" style="fill: #ffffff"/>
   </g>
   <g id="matplotlib.axis_1">
    <g id="xtick_1">
     <g id="line2d_1">
      <defs>
       <path id="m09b37443b8" d="M 0 0 
L 0 3.5 
" style="stroke: #000000; stroke-width: 0.8"/>
      </defs>
      <g>
       <use xlink:href="#m09b37443b8" x="73.594872" y="280.869938" style="stroke: #000000; stroke-width: 0.8"/>
      </g>
     </g>
     <g id="text_1">
      <!-- Mean queue -->
      <g transform="translate(19.379521 309.17298) rotate(-15) scale(0.1 -0.1)">
       <defs>
        <path id="ArialMT-4d" d="M 475 0 
L 475 4581 
L 1388 4581 
L 2472 1338 
Q 2622 884 2691 659 
Q 2769 909 2934 1394 
L 4031 4581 
L 4847 4581 
L 4847 0 
L 4263 0 
L 4263 3834 
L 2931 0 
L 2384 0 
L 1059 3900 
L 1059 0 
L 475 0 
z
" transform="scale(0.015625)"/>
        <path id="ArialMT-65" d="M 2694 1069 
L 3275 997 
Q 3138 488 2766 206 
Q 2394 -75 1816 -75 
Q 1088 -75 661 373 
Q 234 822 234 1631 
Q 234 2469 665 2931 
Q 1097 3394 1784 3394 
Q 2450 3394 2872 2941 
Q 3294 2488 3294 1666 
Q 3294 1616 3291 1516 
L 816 1516 
Q 847 969 1125 678 
Q 1403 388 1819 388 
Q 2128 388 2347 550 
Q 2566 713 2694 1069 
z
M 847 1978 
L 2700 1978 
Q 2663 2397 2488 2606 
Q 2219 2931 1791 2931 
Q 1403 2931 1139 2672 
Q 875 2413 847 1978 
z
" transform="scale(0.015625)"/>
        <path id="ArialMT-61" d="M 2588 409 
Q 2275 144 1986 34 
Q 1697 -75 1366 -75 
Q 819 -75 525 192 
Q 231 459 231 875 
Q 231 1119 342 1320 
Q 453 1522 633 1644 
Q 813 1766 1038 1828 
Q 1203 1872 1538 1913 
Q 2219 1994 2541 2106 
Q 2544 2222 2544 2253 
Q 2544 2597 2384 2738 
Q 2169 2928 1744 2928 
Q 1347 2928 1158 2789 
Q 969 2650 878 2297 
L 328 2372 
Q 403 2725 575 2942 
Q 747 3159 1072 3276 
Q 1397 3394 1825 3394 
Q 2250 3394 2515 3294 
Q 2781 3194 2906 3042 
Q 3031 2891 3081 2659 
Q 3109 2516 3109 2141 
L 3109 1391 
Q 3109 606 3145 398 
Q 3181 191 3288 0 
L 2700 0 
Q 2613 175 2588 409 
z
M 2541 1666 
Q 2234 1541 1622 1453 
Q 1275 1403 1131 1340 
Q 988 1278 909 1158 
Q 831 1038 831 891 
Q 831 666 1001 516 
Q 1172 366 1500 366 
Q 1825 366 2078 508 
Q 2331 650 2450 897 
Q 2541 1088 2541 1459 
L 2541 1666 
z
" transform="scale(0.015625)"/>
        <path id="ArialMT-6e" d="M 422 0 
L 422 3319 
L 928 3319 
L 928 2847 
Q 1294 3394 1984 3394 
Q 2284 3394 2536 3286 
Q 2788 3178 2913 3003 
Q 3038 2828 3088 2588 
Q 3119 2431 3119 2041 
L 3119 0 
L 2556 0 
L 2556 2019 
Q 2556 2363 2490 2533 
Q 2425 2703 2258 2804 
Q 2091 2906 1866 2906 
Q 1506 2906 1245 2678 
Q 984 2450 984 1813 
L 984 0 
L 422 0 
z
" transform="scale(0.015625)"/>
        <path id="ArialMT-20" transform="scale(0.015625)"/>
        <path id="ArialMT-71" d="M 2538 -1272 
L 2538 353 
Q 2406 169 2170 47 
Q 1934 -75 1669 -75 
Q 1078 -75 651 397 
Q 225 869 225 1691 
Q 225 2191 398 2587 
Q 572 2984 901 3189 
Q 1231 3394 1625 3394 
Q 2241 3394 2594 2875 
L 2594 3319 
L 3100 3319 
L 3100 -1272 
L 2538 -1272 
z
M 803 1669 
Q 803 1028 1072 708 
Q 1341 388 1716 388 
Q 2075 388 2334 692 
Q 2594 997 2594 1619 
Q 2594 2281 2320 2615 
Q 2047 2950 1678 2950 
Q 1313 2950 1058 2639 
Q 803 2328 803 1669 
z
" transform="scale(0.015625)"/>
        <path id="ArialMT-75" d="M 2597 0 
L 2597 488 
Q 2209 -75 1544 -75 
Q 1250 -75 995 37 
Q 741 150 617 320 
Q 494 491 444 738 
Q 409 903 409 1263 
L 409 3319 
L 972 3319 
L 972 1478 
Q 972 1038 1006 884 
Q 1059 663 1231 536 
Q 1403 409 1656 409 
Q 1909 409 2131 539 
Q 2353 669 2445 892 
Q 2538 1116 2538 1541 
L 2538 3319 
L 3100 3319 
L 3100 0 
L 2597 0 
z
" transform="scale(0.015625)"/>
       </defs>
       <use xlink:href="#ArialMT-4d"/>
       <use xlink:href="#ArialMT-65" transform="translate(83.300781 0)"/>
       <use xlink:href="#ArialMT-61" transform="translate(138.916016 0)"/>
       <use xlink:href="#ArialMT-6e" transform="translate(194.53125 0)"/>
       <use xlink:href="#ArialMT-20" transform="translate(250.146484 0)"/>
       <use xlink:href="#ArialMT-71" transform="translate(277.929688 0)"/>
       <use xlink:href="#ArialMT-75" transform="translate(333.544922 0)"/>
       <use xlink:href="#ArialMT-65" transform="translate(389.160156 0)"/>
       <use xlink:href="#ArialMT-75" transform="translate(444.775391 0)"/>
       <use xlink:href="#ArialMT-65" transform="translate(500.390625 0)"/>
      </g>
     </g>
    </g>
    <g id="xtick_2">
     <g id="line2d_2">
      <g>
       <use xlink:href="#m09b37443b8" x="246.088812" y="280.869938" style="stroke: #000000; stroke-width: 0.8"/>
      </g>
     </g>
     <g id="text_2">
      <!-- Mean time loss -->
      <g transform="translate(180.623443 312.187413) rotate(-15) scale(0.1 -0.1)">
       <defs>
        <path id="ArialMT-74" d="M 1650 503 
L 1731 6 
Q 1494 -44 1306 -44 
Q 1000 -44 831 53 
Q 663 150 594 308 
Q 525 466 525 972 
L 525 2881 
L 113 2881 
L 113 3319 
L 525 3319 
L 525 4141 
L 1084 4478 
L 1084 3319 
L 1650 3319 
L 1650 2881 
L 1084 2881 
L 1084 941 
Q 1084 700 1114 631 
Q 1144 563 1211 522 
Q 1278 481 1403 481 
Q 1497 481 1650 503 
z
" transform="scale(0.015625)"/>
        <path id="ArialMT-69" d="M 425 3934 
L 425 4581 
L 988 4581 
L 988 3934 
L 425 3934 
z
M 425 0 
L 425 3319 
L 988 3319 
L 988 0 
L 425 0 
z
" transform="scale(0.015625)"/>
        <path id="ArialMT-6d" d="M 422 0 
L 422 3319 
L 925 3319 
L 925 2853 
Q 1081 3097 1340 3245 
Q 1600 3394 1931 3394 
Q 2300 3394 2536 3241 
Q 2772 3088 2869 2813 
Q 3263 3394 3894 3394 
Q 4388 3394 4653 3120 
Q 4919 2847 4919 2278 
L 4919 0 
L 4359 0 
L 4359 2091 
Q 4359 2428 4304 2576 
Q 4250 2725 4106 2815 
Q 3963 2906 3769 2906 
Q 3419 2906 3187 2673 
Q 2956 2441 2956 1928 
L 2956 0 
L 2394 0 
L 2394 2156 
Q 2394 2531 2256 2718 
Q 2119 2906 1806 2906 
Q 1569 2906 1367 2781 
Q 1166 2656 1075 2415 
Q 984 2175 984 1722 
L 984 0 
L 422 0 
z
" transform="scale(0.015625)"/>
        <path id="ArialMT-6c" d="M 409 0 
L 409 4581 
L 972 4581 
L 972 0 
L 409 0 
z
" transform="scale(0.015625)"/>
        <path id="ArialMT-6f" d="M 213 1659 
Q 213 2581 725 3025 
Q 1153 3394 1769 3394 
Q 2453 3394 2887 2945 
Q 3322 2497 3322 1706 
Q 3322 1066 3130 698 
Q 2938 331 2570 128 
Q 2203 -75 1769 -75 
Q 1072 -75 642 372 
Q 213 819 213 1659 
z
M 791 1659 
Q 791 1022 1069 705 
Q 1347 388 1769 388 
Q 2188 388 2466 706 
Q 2744 1025 2744 1678 
Q 2744 2294 2464 2611 
Q 2184 2928 1769 2928 
Q 1347 2928 1069 2612 
Q 791 2297 791 1659 
z
" transform="scale(0.015625)"/>
        <path id="ArialMT-73" d="M 197 991 
L 753 1078 
Q 800 744 1014 566 
Q 1228 388 1613 388 
Q 2000 388 2187 545 
Q 2375 703 2375 916 
Q 2375 1106 2209 1216 
Q 2094 1291 1634 1406 
Q 1016 1563 777 1677 
Q 538 1791 414 1992 
Q 291 2194 291 2438 
Q 291 2659 392 2848 
Q 494 3038 669 3163 
Q 800 3259 1026 3326 
Q 1253 3394 1513 3394 
Q 1903 3394 2198 3281 
Q 2494 3169 2634 2976 
Q 2775 2784 2828 2463 
L 2278 2388 
Q 2241 2644 2061 2787 
Q 1881 2931 1553 2931 
Q 1166 2931 1000 2803 
Q 834 2675 834 2503 
Q 834 2394 903 2306 
Q 972 2216 1119 2156 
Q 1203 2125 1616 2013 
Q 2213 1853 2448 1751 
Q 2684 1650 2818 1456 
Q 2953 1263 2953 975 
Q 2953 694 2789 445 
Q 2625 197 2315 61 
Q 2006 -75 1616 -75 
Q 969 -75 630 194 
Q 291 463 197 991 
z
" transform="scale(0.015625)"/>
       </defs>
       <use xlink:href="#ArialMT-4d"/>
       <use xlink:href="#ArialMT-65" transform="translate(83.300781 0)"/>
       <use xlink:href="#ArialMT-61" transform="translate(138.916016 0)"/>
       <use xlink:href="#ArialMT-6e" transform="translate(194.53125 0)"/>
       <use xlink:href="#ArialMT-20" transform="translate(250.146484 0)"/>
       <use xlink:href="#ArialMT-74" transform="translate(277.929688 0)"/>
       <use xlink:href="#ArialMT-69" transform="translate(305.712891 0)"/>
       <use xlink:href="#ArialMT-6d" transform="translate(327.929688 0)"/>
       <use xlink:href="#ArialMT-65" transform="translate(411.230469 0)"/>
       <use xlink:href="#ArialMT-20" transform="translate(466.845703 0)"/>
       <use xlink:href="#ArialMT-6c" transform="translate(494.628906 0)"/>
       <use xlink:href="#ArialMT-6f" transform="translate(516.845703 0)"/>
       <use xlink:href="#ArialMT-73" transform="translate(572.460938 0)"/>
       <use xlink:href="#ArialMT-73" transform="translate(622.460938 0)"/>
      </g>
     </g>
    </g>
    <g id="xtick_3">
     <g id="line2d_3">
      <g>
       <use xlink:href="#m09b37443b8" x="418.582751" y="280.869938" style="stroke: #000000; stroke-width: 0.8"/>
      </g>
     </g>
     <g id="text_3">
      <!-- Started halts -->
      <g transform="translate(363.842178 309.313713) rotate(-15) scale(0.1 -0.1)">
       <defs>
        <path id="ArialMT-53" d="M 288 1472 
L 859 1522 
Q 900 1178 1048 958 
Q 1197 738 1509 602 
Q 1822 466 2213 466 
Q 2559 466 2825 569 
Q 3091 672 3220 851 
Q 3350 1031 3350 1244 
Q 3350 1459 3225 1620 
Q 3100 1781 2813 1891 
Q 2628 1963 1997 2114 
Q 1366 2266 1113 2400 
Q 784 2572 623 2826 
Q 463 3081 463 3397 
Q 463 3744 659 4045 
Q 856 4347 1234 4503 
Q 1613 4659 2075 4659 
Q 2584 4659 2973 4495 
Q 3363 4331 3572 4012 
Q 3781 3694 3797 3291 
L 3216 3247 
Q 3169 3681 2898 3903 
Q 2628 4125 2100 4125 
Q 1550 4125 1298 3923 
Q 1047 3722 1047 3438 
Q 1047 3191 1225 3031 
Q 1400 2872 2139 2705 
Q 2878 2538 3153 2413 
Q 3553 2228 3743 1945 
Q 3934 1663 3934 1294 
Q 3934 928 3725 604 
Q 3516 281 3123 101 
Q 2731 -78 2241 -78 
Q 1619 -78 1198 103 
Q 778 284 539 648 
Q 300 1013 288 1472 
z
" transform="scale(0.015625)"/>
        <path id="ArialMT-72" d="M 416 0 
L 416 3319 
L 922 3319 
L 922 2816 
Q 1116 3169 1280 3281 
Q 1444 3394 1641 3394 
Q 1925 3394 2219 3213 
L 2025 2691 
Q 1819 2813 1613 2813 
Q 1428 2813 1281 2702 
Q 1134 2591 1072 2394 
Q 978 2094 978 1738 
L 978 0 
L 416 0 
z
" transform="scale(0.015625)"/>
        <path id="ArialMT-64" d="M 2575 0 
L 2575 419 
Q 2259 -75 1647 -75 
Q 1250 -75 917 144 
Q 584 363 401 755 
Q 219 1147 219 1656 
Q 219 2153 384 2558 
Q 550 2963 881 3178 
Q 1213 3394 1622 3394 
Q 1922 3394 2156 3267 
Q 2391 3141 2538 2938 
L 2538 4581 
L 3097 4581 
L 3097 0 
L 2575 0 
z
M 797 1656 
Q 797 1019 1065 703 
Q 1334 388 1700 388 
Q 2069 388 2326 689 
Q 2584 991 2584 1609 
Q 2584 2291 2321 2609 
Q 2059 2928 1675 2928 
Q 1300 2928 1048 2622 
Q 797 2316 797 1656 
z
" transform="scale(0.015625)"/>
        <path id="ArialMT-68" d="M 422 0 
L 422 4581 
L 984 4581 
L 984 2938 
Q 1378 3394 1978 3394 
Q 2347 3394 2619 3248 
Q 2891 3103 3008 2847 
Q 3125 2591 3125 2103 
L 3125 0 
L 2563 0 
L 2563 2103 
Q 2563 2525 2380 2717 
Q 2197 2909 1863 2909 
Q 1613 2909 1392 2779 
Q 1172 2650 1078 2428 
Q 984 2206 984 1816 
L 984 0 
L 422 0 
z
" transform="scale(0.015625)"/>
       </defs>
       <use xlink:href="#ArialMT-53"/>
       <use xlink:href="#ArialMT-74" transform="translate(66.699219 0)"/>
       <use xlink:href="#ArialMT-61" transform="translate(94.482422 0)"/>
       <use xlink:href="#ArialMT-72" transform="translate(150.097656 0)"/>
       <use xlink:href="#ArialMT-74" transform="translate(183.398438 0)"/>
       <use xlink:href="#ArialMT-65" transform="translate(211.181641 0)"/>
       <use xlink:href="#ArialMT-64" transform="translate(266.796875 0)"/>
       <use xlink:href="#ArialMT-20" transform="translate(322.412109 0)"/>
       <use xlink:href="#ArialMT-68" transform="translate(350.195312 0)"/>
       <use xlink:href="#ArialMT-61" transform="translate(405.810547 0)"/>
       <use xlink:href="#ArialMT-6c" transform="translate(461.425781 0)"/>
       <use xlink:href="#ArialMT-74" transform="translate(483.642578 0)"/>
       <use xlink:href="#ArialMT-73" transform="translate(511.425781 0)"/>
      </g>
     </g>
    </g>
    <g id="xtick_4">
     <g id="line2d_4">
      <g>
       <use xlink:href="#m09b37443b8" x="591.07669" y="280.869938" style="stroke: #000000; stroke-width: 0.8"/>
      </g>
     </g>
     <g id="text_4">
      <!-- Vehicle entries -->
      <g transform="translate(527.740887 311.616798) rotate(-15) scale(0.1 -0.1)">
       <defs>
        <path id="ArialMT-56" d="M 1803 0 
L 28 4581 
L 684 4581 
L 1875 1253 
Q 2019 853 2116 503 
Q 2222 878 2363 1253 
L 3600 4581 
L 4219 4581 
L 2425 0 
L 1803 0 
z
" transform="scale(0.015625)"/>
        <path id="ArialMT-63" d="M 2588 1216 
L 3141 1144 
Q 3050 572 2676 248 
Q 2303 -75 1759 -75 
Q 1078 -75 664 370 
Q 250 816 250 1647 
Q 250 2184 428 2587 
Q 606 2991 970 3192 
Q 1334 3394 1763 3394 
Q 2303 3394 2647 3120 
Q 2991 2847 3088 2344 
L 2541 2259 
Q 2463 2594 2264 2762 
Q 2066 2931 1784 2931 
Q 1359 2931 1093 2626 
Q 828 2322 828 1663 
Q 828 994 1084 691 
Q 1341 388 1753 388 
Q 2084 388 2306 591 
Q 2528 794 2588 1216 
z
" transform="scale(0.015625)"/>
       </defs>
       <use xlink:href="#ArialMT-56"/>
       <use xlink:href="#ArialMT-65" transform="translate(61.199219 0)"/>
       <use xlink:href="#ArialMT-68" transform="translate(116.814453 0)"/>
       <use xlink:href="#ArialMT-69" transform="translate(172.429688 0)"/>
       <use xlink:href="#ArialMT-63" transform="translate(194.646484 0)"/>
       <use xlink:href="#ArialMT-6c" transform="translate(244.646484 0)"/>
       <use xlink:href="#ArialMT-65" transform="translate(266.863281 0)"/>
       <use xlink:href="#ArialMT-20" transform="translate(322.478516 0)"/>
       <use xlink:href="#ArialMT-65" transform="translate(350.261719 0)"/>
       <use xlink:href="#ArialMT-6e" transform="translate(405.876953 0)"/>
       <use xlink:href="#ArialMT-74" transform="translate(461.492188 0)"/>
       <use xlink:href="#ArialMT-72" transform="translate(489.275391 0)"/>
       <use xlink:href="#ArialMT-69" transform="translate(522.576172 0)"/>
       <use xlink:href="#ArialMT-65" transform="translate(544.792969 0)"/>
       <use xlink:href="#ArialMT-73" transform="translate(600.408203 0)"/>
      </g>
     </g>
    </g>
    <g id="text_5">
     <!-- Operational indicator -->
     <g transform="translate(281.587969 326.121722) scale(0.11 -0.11)">
      <defs>
       <path id="ArialMT-4f" d="M 309 2231 
Q 309 3372 921 4017 
Q 1534 4663 2503 4663 
Q 3138 4663 3647 4359 
Q 4156 4056 4423 3514 
Q 4691 2972 4691 2284 
Q 4691 1588 4409 1038 
Q 4128 488 3612 205 
Q 3097 -78 2500 -78 
Q 1853 -78 1343 234 
Q 834 547 571 1087 
Q 309 1628 309 2231 
z
M 934 2222 
Q 934 1394 1379 917 
Q 1825 441 2497 441 
Q 3181 441 3623 922 
Q 4066 1403 4066 2288 
Q 4066 2847 3877 3264 
Q 3688 3681 3323 3911 
Q 2959 4141 2506 4141 
Q 1863 4141 1398 3698 
Q 934 3256 934 2222 
z
" transform="scale(0.015625)"/>
       <path id="ArialMT-70" d="M 422 -1272 
L 422 3319 
L 934 3319 
L 934 2888 
Q 1116 3141 1344 3267 
Q 1572 3394 1897 3394 
Q 2322 3394 2647 3175 
Q 2972 2956 3137 2557 
Q 3303 2159 3303 1684 
Q 3303 1175 3120 767 
Q 2938 359 2589 142 
Q 2241 -75 1856 -75 
Q 1575 -75 1351 44 
Q 1128 163 984 344 
L 984 -1272 
L 422 -1272 
z
M 931 1641 
Q 931 1000 1190 694 
Q 1450 388 1819 388 
Q 2194 388 2461 705 
Q 2728 1022 2728 1688 
Q 2728 2322 2467 2637 
Q 2206 2953 1844 2953 
Q 1484 2953 1207 2617 
Q 931 2281 931 1641 
z
" transform="scale(0.015625)"/>
      </defs>
      <use xlink:href="#ArialMT-4f"/>
      <use xlink:href="#ArialMT-70" transform="translate(77.783203 0)"/>
      <use xlink:href="#ArialMT-65" transform="translate(133.398438 0)"/>
      <use xlink:href="#ArialMT-72" transform="translate(189.013672 0)"/>
      <use xlink:href="#ArialMT-61" transform="translate(222.314453 0)"/>
      <use xlink:href="#ArialMT-74" transform="translate(277.929688 0)"/>
      <use xlink:href="#ArialMT-69" transform="translate(305.712891 0)"/>
      <use xlink:href="#ArialMT-6f" transform="translate(327.929688 0)"/>
      <use xlink:href="#ArialMT-6e" transform="translate(383.544922 0)"/>
      <use xlink:href="#ArialMT-61" transform="translate(439.160156 0)"/>
      <use xlink:href="#ArialMT-6c" transform="translate(494.775391 0)"/>
      <use xlink:href="#ArialMT-20" transform="translate(516.992188 0)"/>
      <use xlink:href="#ArialMT-69" transform="translate(544.775391 0)"/>
      <use xlink:href="#ArialMT-6e" transform="translate(566.992188 0)"/>
      <use xlink:href="#ArialMT-64" transform="translate(622.607422 0)"/>
      <use xlink:href="#ArialMT-69" transform="translate(678.222656 0)"/>
      <use xlink:href="#ArialMT-63" transform="translate(700.439453 0)"/>
      <use xlink:href="#ArialMT-61" transform="translate(750.439453 0)"/>
      <use xlink:href="#ArialMT-74" transform="translate(806.054688 0)"/>
      <use xlink:href="#ArialMT-6f" transform="translate(833.837891 0)"/>
      <use xlink:href="#ArialMT-72" transform="translate(889.453125 0)"/>
     </g>
    </g>
   </g>
   <g id="matplotlib.axis_2">
    <g id="ytick_1">
     <g id="line2d_5">
      <path d="M 47.720781 276.504295 
L 616.950781 276.504295 
" clip-path="url(#p56821b8168)" style="fill: none; stroke: #b0b0b0; stroke-opacity: 0.25; stroke-width: 0.8; stroke-linecap: square"/>
     </g>
     <g id="line2d_6">
      <defs>
       <path id="me01e43ca0e" d="M 0 0 
L -3.5 0 
" style="stroke: #000000; stroke-width: 0.8"/>
      </defs>
      <g>
       <use xlink:href="#me01e43ca0e" x="47.720781" y="276.504295" style="stroke: #000000; stroke-width: 0.8"/>
      </g>
     </g>
     <g id="text_6">
      <!-- 0.60 -->
      <g transform="translate(21.259844 280.083201) scale(0.1 -0.1)">
       <defs>
        <path id="ArialMT-30" d="M 266 2259 
Q 266 3072 433 3567 
Q 600 4063 929 4331 
Q 1259 4600 1759 4600 
Q 2128 4600 2406 4451 
Q 2684 4303 2865 4023 
Q 3047 3744 3150 3342 
Q 3253 2941 3253 2259 
Q 3253 1453 3087 958 
Q 2922 463 2592 192 
Q 2263 -78 1759 -78 
Q 1097 -78 719 397 
Q 266 969 266 2259 
z
M 844 2259 
Q 844 1131 1108 757 
Q 1372 384 1759 384 
Q 2147 384 2411 759 
Q 2675 1134 2675 2259 
Q 2675 3391 2411 3762 
Q 2147 4134 1753 4134 
Q 1366 4134 1134 3806 
Q 844 3388 844 2259 
z
" transform="scale(0.015625)"/>
        <path id="ArialMT-2e" d="M 581 0 
L 581 641 
L 1222 641 
L 1222 0 
L 581 0 
z
" transform="scale(0.015625)"/>
        <path id="ArialMT-36" d="M 3184 3459 
L 2625 3416 
Q 2550 3747 2413 3897 
Q 2184 4138 1850 4138 
Q 1581 4138 1378 3988 
Q 1113 3794 959 3422 
Q 806 3050 800 2363 
Q 1003 2672 1297 2822 
Q 1591 2972 1913 2972 
Q 2475 2972 2870 2558 
Q 3266 2144 3266 1488 
Q 3266 1056 3080 686 
Q 2894 316 2569 119 
Q 2244 -78 1831 -78 
Q 1128 -78 684 439 
Q 241 956 241 2144 
Q 241 3472 731 4075 
Q 1159 4600 1884 4600 
Q 2425 4600 2770 4297 
Q 3116 3994 3184 3459 
z
M 888 1484 
Q 888 1194 1011 928 
Q 1134 663 1356 523 
Q 1578 384 1822 384 
Q 2178 384 2434 671 
Q 2691 959 2691 1453 
Q 2691 1928 2437 2201 
Q 2184 2475 1800 2475 
Q 1419 2475 1153 2201 
Q 888 1928 888 1484 
z
" transform="scale(0.015625)"/>
       </defs>
       <use xlink:href="#ArialMT-30"/>
       <use xlink:href="#ArialMT-2e" transform="translate(55.615234 0)"/>
       <use xlink:href="#ArialMT-36" transform="translate(83.398438 0)"/>
       <use xlink:href="#ArialMT-30" transform="translate(139.013672 0)"/>
      </g>
     </g>
    </g>
    <g id="ytick_2">
     <g id="line2d_7">
      <path d="M 47.720781 246.155324 
L 616.950781 246.155324 
" clip-path="url(#p56821b8168)" style="fill: none; stroke: #b0b0b0; stroke-opacity: 0.25; stroke-width: 0.8; stroke-linecap: square"/>
     </g>
     <g id="line2d_8">
      <g>
       <use xlink:href="#me01e43ca0e" x="47.720781" y="246.155324" style="stroke: #000000; stroke-width: 0.8"/>
      </g>
     </g>
     <g id="text_7">
      <!-- 0.65 -->
      <g transform="translate(21.259844 249.73423) scale(0.1 -0.1)">
       <defs>
        <path id="ArialMT-35" d="M 266 1200 
L 856 1250 
Q 922 819 1161 601 
Q 1400 384 1738 384 
Q 2144 384 2425 690 
Q 2706 997 2706 1503 
Q 2706 1984 2436 2262 
Q 2166 2541 1728 2541 
Q 1456 2541 1237 2417 
Q 1019 2294 894 2097 
L 366 2166 
L 809 4519 
L 3088 4519 
L 3088 3981 
L 1259 3981 
L 1013 2750 
Q 1425 3038 1878 3038 
Q 2478 3038 2890 2622 
Q 3303 2206 3303 1553 
Q 3303 931 2941 478 
Q 2500 -78 1738 -78 
Q 1113 -78 717 272 
Q 322 622 266 1200 
z
" transform="scale(0.015625)"/>
       </defs>
       <use xlink:href="#ArialMT-30"/>
       <use xlink:href="#ArialMT-2e" transform="translate(55.615234 0)"/>
       <use xlink:href="#ArialMT-36" transform="translate(83.398438 0)"/>
       <use xlink:href="#ArialMT-35" transform="translate(139.013672 0)"/>
      </g>
     </g>
    </g>
    <g id="ytick_3">
     <g id="line2d_9">
      <path d="M 47.720781 215.806352 
L 616.950781 215.806352 
" clip-path="url(#p56821b8168)" style="fill: none; stroke: #b0b0b0; stroke-opacity: 0.25; stroke-width: 0.8; stroke-linecap: square"/>
     </g>
     <g id="line2d_10">
      <g>
       <use xlink:href="#me01e43ca0e" x="47.720781" y="215.806352" style="stroke: #000000; stroke-width: 0.8"/>
      </g>
     </g>
     <g id="text_8">
      <!-- 0.70 -->
      <g transform="translate(21.259844 219.385259) scale(0.1 -0.1)">
       <defs>
        <path id="ArialMT-37" d="M 303 3981 
L 303 4522 
L 3269 4522 
L 3269 4084 
Q 2831 3619 2401 2847 
Q 1972 2075 1738 1259 
Q 1569 684 1522 0 
L 944 0 
Q 953 541 1156 1306 
Q 1359 2072 1739 2783 
Q 2119 3494 2547 3981 
L 303 3981 
z
" transform="scale(0.015625)"/>
       </defs>
       <use xlink:href="#ArialMT-30"/>
       <use xlink:href="#ArialMT-2e" transform="translate(55.615234 0)"/>
       <use xlink:href="#ArialMT-37" transform="translate(83.398438 0)"/>
       <use xlink:href="#ArialMT-30" transform="translate(139.013672 0)"/>
      </g>
     </g>
    </g>
    <g id="ytick_4">
     <g id="line2d_11">
      <path d="M 47.720781 185.457381 
L 616.950781 185.457381 
" clip-path="url(#p56821b8168)" style="fill: none; stroke: #b0b0b0; stroke-opacity: 0.25; stroke-width: 0.8; stroke-linecap: square"/>
     </g>
     <g id="line2d_12">
      <g>
       <use xlink:href="#me01e43ca0e" x="47.720781" y="185.457381" style="stroke: #000000; stroke-width: 0.8"/>
      </g>
     </g>
     <g id="text_9">
      <!-- 0.75 -->
      <g transform="translate(21.259844 189.036288) scale(0.1 -0.1)">
       <use xlink:href="#ArialMT-30"/>
       <use xlink:href="#ArialMT-2e" transform="translate(55.615234 0)"/>
       <use xlink:href="#ArialMT-37" transform="translate(83.398438 0)"/>
       <use xlink:href="#ArialMT-35" transform="translate(139.013672 0)"/>
      </g>
     </g>
    </g>
    <g id="ytick_5">
     <g id="line2d_13">
      <path d="M 47.720781 155.10841 
L 616.950781 155.10841 
" clip-path="url(#p56821b8168)" style="fill: none; stroke: #b0b0b0; stroke-opacity: 0.25; stroke-width: 0.8; stroke-linecap: square"/>
     </g>
     <g id="line2d_14">
      <g>
       <use xlink:href="#me01e43ca0e" x="47.720781" y="155.10841" style="stroke: #000000; stroke-width: 0.8"/>
      </g>
     </g>
     <g id="text_10">
      <!-- 0.80 -->
      <g transform="translate(21.259844 158.687316) scale(0.1 -0.1)">
       <defs>
        <path id="ArialMT-38" d="M 1131 2484 
Q 781 2613 612 2850 
Q 444 3088 444 3419 
Q 444 3919 803 4259 
Q 1163 4600 1759 4600 
Q 2359 4600 2725 4251 
Q 3091 3903 3091 3403 
Q 3091 3084 2923 2848 
Q 2756 2613 2416 2484 
Q 2838 2347 3058 2040 
Q 3278 1734 3278 1309 
Q 3278 722 2862 322 
Q 2447 -78 1769 -78 
Q 1091 -78 675 323 
Q 259 725 259 1325 
Q 259 1772 486 2073 
Q 713 2375 1131 2484 
z
M 1019 3438 
Q 1019 3113 1228 2906 
Q 1438 2700 1772 2700 
Q 2097 2700 2305 2904 
Q 2513 3109 2513 3406 
Q 2513 3716 2298 3927 
Q 2084 4138 1766 4138 
Q 1444 4138 1231 3931 
Q 1019 3725 1019 3438 
z
M 838 1322 
Q 838 1081 952 856 
Q 1066 631 1291 507 
Q 1516 384 1775 384 
Q 2178 384 2440 643 
Q 2703 903 2703 1303 
Q 2703 1709 2433 1975 
Q 2163 2241 1756 2241 
Q 1359 2241 1098 1978 
Q 838 1716 838 1322 
z
" transform="scale(0.015625)"/>
       </defs>
       <use xlink:href="#ArialMT-30"/>
       <use xlink:href="#ArialMT-2e" transform="translate(55.615234 0)"/>
       <use xlink:href="#ArialMT-38" transform="translate(83.398438 0)"/>
       <use xlink:href="#ArialMT-30" transform="translate(139.013672 0)"/>
      </g>
     </g>
    </g>
    <g id="ytick_6">
     <g id="line2d_15">
      <path d="M 47.720781 124.759439 
L 616.950781 124.759439 
" clip-path="url(#p56821b8168)" style="fill: none; stroke: #b0b0b0; stroke-opacity: 0.25; stroke-width: 0.8; stroke-linecap: square"/>
     </g>
     <g id="line2d_16">
      <g>
       <use xlink:href="#me01e43ca0e" x="47.720781" y="124.759439" style="stroke: #000000; stroke-width: 0.8"/>
      </g>
     </g>
     <g id="text_11">
      <!-- 0.85 -->
      <g transform="translate(21.259844 128.338345) scale(0.1 -0.1)">
       <use xlink:href="#ArialMT-30"/>
       <use xlink:href="#ArialMT-2e" transform="translate(55.615234 0)"/>
       <use xlink:href="#ArialMT-38" transform="translate(83.398438 0)"/>
       <use xlink:href="#ArialMT-35" transform="translate(139.013672 0)"/>
      </g>
     </g>
    </g>
    <g id="ytick_7">
     <g id="line2d_17">
      <path d="M 47.720781 94.410468 
L 616.950781 94.410468 
" clip-path="url(#p56821b8168)" style="fill: none; stroke: #b0b0b0; stroke-opacity: 0.25; stroke-width: 0.8; stroke-linecap: square"/>
     </g>
     <g id="line2d_18">
      <g>
       <use xlink:href="#me01e43ca0e" x="47.720781" y="94.410468" style="stroke: #000000; stroke-width: 0.8"/>
      </g>
     </g>
     <g id="text_12">
      <!-- 0.90 -->
      <g transform="translate(21.259844 97.989374) scale(0.1 -0.1)">
       <defs>
        <path id="ArialMT-39" d="M 350 1059 
L 891 1109 
Q 959 728 1153 556 
Q 1347 384 1650 384 
Q 1909 384 2104 503 
Q 2300 622 2425 820 
Q 2550 1019 2634 1356 
Q 2719 1694 2719 2044 
Q 2719 2081 2716 2156 
Q 2547 1888 2255 1720 
Q 1963 1553 1622 1553 
Q 1053 1553 659 1965 
Q 266 2378 266 3053 
Q 266 3750 677 4175 
Q 1088 4600 1706 4600 
Q 2153 4600 2523 4359 
Q 2894 4119 3086 3673 
Q 3278 3228 3278 2384 
Q 3278 1506 3087 986 
Q 2897 466 2520 194 
Q 2144 -78 1638 -78 
Q 1100 -78 759 220 
Q 419 519 350 1059 
z
M 2653 3081 
Q 2653 3566 2395 3850 
Q 2138 4134 1775 4134 
Q 1400 4134 1122 3828 
Q 844 3522 844 3034 
Q 844 2597 1108 2323 
Q 1372 2050 1759 2050 
Q 2150 2050 2401 2323 
Q 2653 2597 2653 3081 
z
" transform="scale(0.015625)"/>
       </defs>
       <use xlink:href="#ArialMT-30"/>
       <use xlink:href="#ArialMT-2e" transform="translate(55.615234 0)"/>
       <use xlink:href="#ArialMT-39" transform="translate(83.398438 0)"/>
       <use xlink:href="#ArialMT-30" transform="translate(139.013672 0)"/>
      </g>
     </g>
    </g>
    <g id="ytick_8">
     <g id="line2d_19">
      <path d="M 47.720781 64.061497 
L 616.950781 64.061497 
" clip-path="url(#p56821b8168)" style="fill: none; stroke: #b0b0b0; stroke-opacity: 0.25; stroke-width: 0.8; stroke-linecap: square"/>
     </g>
     <g id="line2d_20">
      <g>
       <use xlink:href="#me01e43ca0e" x="47.720781" y="64.061497" style="stroke: #000000; stroke-width: 0.8"/>
      </g>
     </g>
     <g id="text_13">
      <!-- 0.95 -->
      <g transform="translate(21.259844 67.640403) scale(0.1 -0.1)">
       <use xlink:href="#ArialMT-30"/>
       <use xlink:href="#ArialMT-2e" transform="translate(55.615234 0)"/>
       <use xlink:href="#ArialMT-39" transform="translate(83.398438 0)"/>
       <use xlink:href="#ArialMT-35" transform="translate(139.013672 0)"/>
      </g>
     </g>
    </g>
    <g id="ytick_9">
     <g id="line2d_21">
      <path d="M 47.720781 33.712526 
L 616.950781 33.712526 
" clip-path="url(#p56821b8168)" style="fill: none; stroke: #b0b0b0; stroke-opacity: 0.25; stroke-width: 0.8; stroke-linecap: square"/>
     </g>
     <g id="line2d_22">
      <g>
       <use xlink:href="#me01e43ca0e" x="47.720781" y="33.712526" style="stroke: #000000; stroke-width: 0.8"/>
      </g>
     </g>
     <g id="text_14">
      <!-- 1.00 -->
      <g transform="translate(21.259844 37.291432) scale(0.1 -0.1)">
       <defs>
        <path id="ArialMT-31" d="M 2384 0 
L 1822 0 
L 1822 3584 
Q 1619 3391 1289 3197 
Q 959 3003 697 2906 
L 697 3450 
Q 1169 3672 1522 3987 
Q 1875 4303 2022 4600 
L 2384 4600 
L 2384 0 
z
" transform="scale(0.015625)"/>
       </defs>
       <use xlink:href="#ArialMT-31"/>
       <use xlink:href="#ArialMT-2e" transform="translate(55.615234 0)"/>
       <use xlink:href="#ArialMT-30" transform="translate(83.398438 0)"/>
       <use xlink:href="#ArialMT-30" transform="translate(139.013672 0)"/>
      </g>
     </g>
    </g>
    <g id="text_15">
     <!-- Normalized value [-] -->
     <g transform="translate(15.073594 200.310125) rotate(-90) scale(0.11 -0.11)">
      <defs>
       <path id="ArialMT-4e" d="M 488 0 
L 488 4581 
L 1109 4581 
L 3516 984 
L 3516 4581 
L 4097 4581 
L 4097 0 
L 3475 0 
L 1069 3600 
L 1069 0 
L 488 0 
z
" transform="scale(0.015625)"/>
       <path id="ArialMT-7a" d="M 125 0 
L 125 456 
L 2238 2881 
Q 1878 2863 1603 2863 
L 250 2863 
L 250 3319 
L 2963 3319 
L 2963 2947 
L 1166 841 
L 819 456 
Q 1197 484 1528 484 
L 3063 484 
L 3063 0 
L 125 0 
z
" transform="scale(0.015625)"/>
       <path id="ArialMT-76" d="M 1344 0 
L 81 3319 
L 675 3319 
L 1388 1331 
Q 1503 1009 1600 663 
Q 1675 925 1809 1294 
L 2547 3319 
L 3125 3319 
L 1869 0 
L 1344 0 
z
" transform="scale(0.015625)"/>
       <path id="ArialMT-5b" d="M 434 -1272 
L 434 4581 
L 1675 4581 
L 1675 4116 
L 997 4116 
L 997 -806 
L 1675 -806 
L 1675 -1272 
L 434 -1272 
z
" transform="scale(0.015625)"/>
       <path id="ArialMT-2d" d="M 203 1375 
L 203 1941 
L 1931 1941 
L 1931 1375 
L 203 1375 
z
" transform="scale(0.015625)"/>
       <path id="ArialMT-5d" d="M 1363 -1272 
L 122 -1272 
L 122 -806 
L 800 -806 
L 800 4116 
L 122 4116 
L 122 4581 
L 1363 4581 
L 1363 -1272 
z
" transform="scale(0.015625)"/>
      </defs>
      <use xlink:href="#ArialMT-4e"/>
      <use xlink:href="#ArialMT-6f" transform="translate(72.216797 0)"/>
      <use xlink:href="#ArialMT-72" transform="translate(127.832031 0)"/>
      <use xlink:href="#ArialMT-6d" transform="translate(161.132812 0)"/>
      <use xlink:href="#ArialMT-61" transform="translate(244.433594 0)"/>
      <use xlink:href="#ArialMT-6c" transform="translate(300.048828 0)"/>
      <use xlink:href="#ArialMT-69" transform="translate(322.265625 0)"/>
      <use xlink:href="#ArialMT-7a" transform="translate(344.482422 0)"/>
      <use xlink:href="#ArialMT-65" transform="translate(394.482422 0)"/>
      <use xlink:href="#ArialMT-64" transform="translate(450.097656 0)"/>
      <use xlink:href="#ArialMT-20" transform="translate(505.712891 0)"/>
      <use xlink:href="#ArialMT-76" transform="translate(533.496094 0)"/>
      <use xlink:href="#ArialMT-61" transform="translate(583.496094 0)"/>
      <use xlink:href="#ArialMT-6c" transform="translate(639.111328 0)"/>
      <use xlink:href="#ArialMT-75" transform="translate(661.328125 0)"/>
      <use xlink:href="#ArialMT-65" transform="translate(716.943359 0)"/>
      <use xlink:href="#ArialMT-20" transform="translate(772.558594 0)"/>
      <use xlink:href="#ArialMT-5b" transform="translate(800.341797 0)"/>
      <use xlink:href="#ArialMT-2d" transform="translate(828.125 0)"/>
      <use xlink:href="#ArialMT-5d" transform="translate(861.425781 0)"/>
     </g>
    </g>
   </g>
   <g id="line2d_23">
    <path d="M 73.594872 147.751438 
L 246.088812 93.462924 
L 418.582751 102.893663 
L 591.07669 80.816383 
" clip-path="url(#p56821b8168)" style="fill: none; stroke: #1f77b4; stroke-width: 2; stroke-linecap: square"/>
    <defs>
     <path id="mdba1910679" d="M 0 2.5 
C 0.663008 2.5 1.29895 2.236584 1.767767 1.767767 
C 2.236584 1.29895 2.5 0.663008 2.5 0 
C 2.5 -0.663008 2.236584 -1.29895 1.767767 -1.767767 
C 1.29895 -2.236584 0.663008 -2.5 0 -2.5 
C -0.663008 -2.5 -1.29895 -2.236584 -1.767767 -1.767767 
C -2.236584 -1.29895 -2.5 -0.663008 -2.5 0 
C -2.5 0.663008 -2.236584 1.29895 -1.767767 1.767767 
C -1.29895 2.236584 -0.663008 2.5 0 2.5 
z
" style="stroke: #1f77b4"/>
    </defs>
    <g clip-path="url(#p56821b8168)">
     <use xlink:href="#mdba1910679" x="73.594872" y="147.751438" style="fill: #1f77b4; stroke: #1f77b4"/>
     <use xlink:href="#mdba1910679" x="246.088812" y="93.462924" style="fill: #1f77b4; stroke: #1f77b4"/>
     <use xlink:href="#mdba1910679" x="418.582751" y="102.893663" style="fill: #1f77b4; stroke: #1f77b4"/>
     <use xlink:href="#mdba1910679" x="591.07669" y="80.816383" style="fill: #1f77b4; stroke: #1f77b4"/>
    </g>
   </g>
   <g id="line2d_24">
    <path d="M 73.594872 33.712526 
L 246.088812 33.712526 
L 418.582751 33.712526 
L 591.07669 33.712526 
" clip-path="url(#p56821b8168)" style="fill: none; stroke: #ff7f0e; stroke-width: 2; stroke-linecap: square"/>
    <defs>
     <path id="m8e510217f5" d="M 0 2.5 
C 0.663008 2.5 1.29895 2.236584 1.767767 1.767767 
C 2.236584 1.29895 2.5 0.663008 2.5 0 
C 2.5 -0.663008 2.236584 -1.29895 1.767767 -1.767767 
C 1.29895 -2.236584 0.663008 -2.5 0 -2.5 
C -0.663008 -2.5 -1.29895 -2.236584 -1.767767 -1.767767 
C -2.236584 -1.29895 -2.5 -0.663008 -2.5 0 
C -2.5 0.663008 -2.236584 1.29895 -1.767767 1.767767 
C -1.29895 2.236584 -0.663008 2.5 0 2.5 
z
" style="stroke: #ff7f0e"/>
    </defs>
    <g clip-path="url(#p56821b8168)">
     <use xlink:href="#m8e510217f5" x="73.594872" y="33.712526" style="fill: #ff7f0e; stroke: #ff7f0e"/>
     <use xlink:href="#m8e510217f5" x="246.088812" y="33.712526" style="fill: #ff7f0e; stroke: #ff7f0e"/>
     <use xlink:href="#m8e510217f5" x="418.582751" y="33.712526" style="fill: #ff7f0e; stroke: #ff7f0e"/>
     <use xlink:href="#m8e510217f5" x="591.07669" y="33.712526" style="fill: #ff7f0e; stroke: #ff7f0e"/>
    </g>
   </g>
   <g id="line2d_25">
    <path d="M 73.594872 269.100538 
L 246.088812 143.546081 
L 418.582751 215.624894 
L 591.07669 228.114987 
" clip-path="url(#p56821b8168)" style="fill: none; stroke: #2ca02c; stroke-width: 2; stroke-linecap: square"/>
    <defs>
     <path id="made65def49" d="M 0 2.5 
C 0.663008 2.5 1.29895 2.236584 1.767767 1.767767 
C 2.236584 1.29895 2.5 0.663008 2.5 0 
C 2.5 -0.663008 2.236584 -1.29895 1.767767 -1.767767 
C 1.29895 -2.236584 0.663008 -2.5 0 -2.5 
C -0.663008 -2.5 -1.29895 -2.236584 -1.767767 -1.767767 
C -2.236584 -1.29895 -2.5 -0.663008 -2.5 0 
C -2.5 0.663008 -2.236584 1.29895 -1.767767 1.767767 
C -1.29895 2.236584 -0.663008 2.5 0 2.5 
z
" style="stroke: #2ca02c"/>
    </defs>
    <g clip-path="url(#p56821b8168)">
     <use xlink:href="#made65def49" x="73.594872" y="269.100538" style="fill: #2ca02c; stroke: #2ca02c"/>
     <use xlink:href="#made65def49" x="246.088812" y="143.546081" style="fill: #2ca02c; stroke: #2ca02c"/>
     <use xlink:href="#made65def49" x="418.582751" y="215.624894" style="fill: #2ca02c; stroke: #2ca02c"/>
     <use xlink:href="#made65def49" x="591.07669" y="228.114987" style="fill: #2ca02c; stroke: #2ca02c"/>
    </g>
   </g>
   <g id="line2d_26">
    <path d="M 73.594872 255.181942 
L 246.088812 188.513555 
L 418.582751 156.650809 
L 591.07669 135.932298 
" clip-path="url(#p56821b8168)" style="fill: none; stroke: #d62728; stroke-width: 2; stroke-linecap: square"/>
    <defs>
     <path id="m1f8f236e0f" d="M 0 2.5 
C 0.663008 2.5 1.29895 2.236584 1.767767 1.767767 
C 2.236584 1.29895 2.5 0.663008 2.5 0 
C 2.5 -0.663008 2.236584 -1.29895 1.767767 -1.767767 
C 1.29895 -2.236584 0.663008 -2.5 0 -2.5 
C -0.663008 -2.5 -1.29895 -2.236584 -1.767767 -1.767767 
C -2.236584 -1.29895 -2.5 -0.663008 -2.5 0 
C -2.5 0.663008 -2.236584 1.29895 -1.767767 1.767767 
C -1.29895 2.236584 -0.663008 2.5 0 2.5 
z
" style="stroke: #d62728"/>
    </defs>
    <g clip-path="url(#p56821b8168)">
     <use xlink:href="#m1f8f236e0f" x="73.594872" y="255.181942" style="fill: #d62728; stroke: #d62728"/>
     <use xlink:href="#m1f8f236e0f" x="246.088812" y="188.513555" style="fill: #d62728; stroke: #d62728"/>
     <use xlink:href="#m1f8f236e0f" x="418.582751" y="156.650809" style="fill: #d62728; stroke: #d62728"/>
     <use xlink:href="#m1f8f236e0f" x="591.07669" y="135.932298" style="fill: #d62728; stroke: #d62728"/>
    </g>
   </g>
   <g id="patch_3">
    <path d="M 47.720781 280.869938 
L 47.720781 21.943125 
" style="fill: none; stroke: #000000; stroke-width: 0.8; stroke-linejoin: miter; stroke-linecap: square"/>
   </g>
   <g id="patch_4">
    <path d="M 616.950781 280.869938 
L 616.950781 21.943125 
" style="fill: none; stroke: #000000; stroke-width: 0.8; stroke-linejoin: miter; stroke-linecap: square"/>
   </g>
   <g id="patch_5">
    <path d="M 47.720781 280.869938 
L 616.950781 280.869938 
" style="fill: none; stroke: #000000; stroke-width: 0.8; stroke-linejoin: miter; stroke-linecap: square"/>
   </g>
   <g id="patch_6">
    <path d="M 47.720781 21.943125 
L 616.950781 21.943125 
" style="fill: none; stroke: #000000; stroke-width: 0.8; stroke-linejoin: miter; stroke-linecap: square"/>
   </g>
   <g id="text_16">
    <!-- Scenario-Level Operational Performance Indicators -->
    <g transform="translate(195.941719 15.943125) scale(0.12 -0.12)">
     <defs>
      <path id="ArialMT-4c" d="M 469 0 
L 469 4581 
L 1075 4581 
L 1075 541 
L 3331 541 
L 3331 0 
L 469 0 
z
" transform="scale(0.015625)"/>
      <path id="ArialMT-50" d="M 494 0 
L 494 4581 
L 2222 4581 
Q 2678 4581 2919 4538 
Q 3256 4481 3484 4323 
Q 3713 4166 3852 3881 
Q 3991 3597 3991 3256 
Q 3991 2672 3619 2267 
Q 3247 1863 2275 1863 
L 1100 1863 
L 1100 0 
L 494 0 
z
M 1100 2403 
L 2284 2403 
Q 2872 2403 3119 2622 
Q 3366 2841 3366 3238 
Q 3366 3525 3220 3729 
Q 3075 3934 2838 4000 
Q 2684 4041 2272 4041 
L 1100 4041 
L 1100 2403 
z
" transform="scale(0.015625)"/>
      <path id="ArialMT-66" d="M 556 0 
L 556 2881 
L 59 2881 
L 59 3319 
L 556 3319 
L 556 3672 
Q 556 4006 616 4169 
Q 697 4388 901 4523 
Q 1106 4659 1475 4659 
Q 1713 4659 2000 4603 
L 1916 4113 
Q 1741 4144 1584 4144 
Q 1328 4144 1222 4034 
Q 1116 3925 1116 3625 
L 1116 3319 
L 1763 3319 
L 1763 2881 
L 1116 2881 
L 1116 0 
L 556 0 
z
" transform="scale(0.015625)"/>
      <path id="ArialMT-49" d="M 597 0 
L 597 4581 
L 1203 4581 
L 1203 0 
L 597 0 
z
" transform="scale(0.015625)"/>
     </defs>
     <use xlink:href="#ArialMT-53"/>
     <use xlink:href="#ArialMT-63" transform="translate(66.699219 0)"/>
     <use xlink:href="#ArialMT-65" transform="translate(116.699219 0)"/>
     <use xlink:href="#ArialMT-6e" transform="translate(172.314453 0)"/>
     <use xlink:href="#ArialMT-61" transform="translate(227.929688 0)"/>
     <use xlink:href="#ArialMT-72" transform="translate(283.544922 0)"/>
     <use xlink:href="#ArialMT-69" transform="translate(316.845703 0)"/>
     <use xlink:href="#ArialMT-6f" transform="translate(339.0625 0)"/>
     <use xlink:href="#ArialMT-2d" transform="translate(394.677734 0)"/>
     <use xlink:href="#ArialMT-4c" transform="translate(427.978516 0)"/>
     <use xlink:href="#ArialMT-65" transform="translate(483.59375 0)"/>
     <use xlink:href="#ArialMT-76" transform="translate(539.208984 0)"/>
     <use xlink:href="#ArialMT-65" transform="translate(589.208984 0)"/>
     <use xlink:href="#ArialMT-6c" transform="translate(644.824219 0)"/>
     <use xlink:href="#ArialMT-20" transform="translate(667.041016 0)"/>
     <use xlink:href="#ArialMT-4f" transform="translate(694.824219 0)"/>
     <use xlink:href="#ArialMT-70" transform="translate(772.607422 0)"/>
     <use xlink:href="#ArialMT-65" transform="translate(828.222656 0)"/>
     <use xlink:href="#ArialMT-72" transform="translate(883.837891 0)"/>
     <use xlink:href="#ArialMT-61" transform="translate(917.138672 0)"/>
     <use xlink:href="#ArialMT-74" transform="translate(972.753906 0)"/>
     <use xlink:href="#ArialMT-69" transform="translate(1000.537109 0)"/>
     <use xlink:href="#ArialMT-6f" transform="translate(1022.753906 0)"/>
     <use xlink:href="#ArialMT-6e" transform="translate(1078.369141 0)"/>
     <use xlink:href="#ArialMT-61" transform="translate(1133.984375 0)"/>
     <use xlink:href="#ArialMT-6c" transform="translate(1189.599609 0)"/>
     <use xlink:href="#ArialMT-20" transform="translate(1211.816406 0)"/>
     <use xlink:href="#ArialMT-50" transform="translate(1239.599609 0)"/>
     <use xlink:href="#ArialMT-65" transform="translate(1306.298828 0)"/>
     <use xlink:href="#ArialMT-72" transform="translate(1361.914062 0)"/>
     <use xlink:href="#ArialMT-66" transform="translate(1395.214844 0)"/>
     <use xlink:href="#ArialMT-6f" transform="translate(1422.998047 0)"/>
     <use xlink:href="#ArialMT-72" transform="translate(1478.613281 0)"/>
     <use xlink:href="#ArialMT-6d" transform="translate(1511.914062 0)"/>
     <use xlink:href="#ArialMT-61" transform="translate(1595.214844 0)"/>
     <use xlink:href="#ArialMT-6e" transform="translate(1650.830078 0)"/>
     <use xlink:href="#ArialMT-63" transform="translate(1706.445312 0)"/>
     <use xlink:href="#ArialMT-65" transform="translate(1756.445312 0)"/>
     <use xlink:href="#ArialMT-20" transform="translate(1812.060547 0)"/>
     <use xlink:href="#ArialMT-49" transform="translate(1839.84375 0)"/>
     <use xlink:href="#ArialMT-6e" transform="translate(1867.626953 0)"/>
     <use xlink:href="#ArialMT-64" transform="translate(1923.242188 0)"/>
     <use xlink:href="#ArialMT-69" transform="translate(1978.857422 0)"/>
     <use xlink:href="#ArialMT-63" transform="translate(2001.074219 0)"/>
     <use xlink:href="#ArialMT-61" transform="translate(2051.074219 0)"/>
     <use xlink:href="#ArialMT-74" transform="translate(2106.689453 0)"/>
     <use xlink:href="#ArialMT-6f" transform="translate(2134.472656 0)"/>
     <use xlink:href="#ArialMT-72" transform="translate(2190.087891 0)"/>
     <use xlink:href="#ArialMT-73" transform="translate(2223.388672 0)"/>
    </g>
   </g>
   <g id="legend_1">
    <g id="patch_7">
     <path d="M 275.849844 275.869938 
L 388.821719 275.869938 
Q 390.821719 275.869938 390.821719 273.869938 
L 390.821719 217.819938 
Q 390.821719 215.819938 388.821719 215.819938 
L 275.849844 215.819938 
Q 273.849844 215.819938 273.849844 217.819938 
L 273.849844 273.869938 
Q 273.849844 275.869938 275.849844 275.869938 
z
" style="fill: #ffffff; opacity: 0.8; stroke: #cccccc; stroke-linejoin: miter"/>
    </g>
    <g id="line2d_27">
     <path d="M 277.849844 223.477751 
L 287.849844 223.477751 
L 297.849844 223.477751 
" style="fill: none; stroke: #1f77b4; stroke-width: 2; stroke-linecap: square"/>
     <g>
      <use xlink:href="#mdba1910679" x="287.849844" y="223.477751" style="fill: #1f77b4; stroke: #1f77b4"/>
     </g>
    </g>
    <g id="text_17">
     <!-- Weekday morning -->
     <g transform="translate(305.849844 226.977751) scale(0.1 -0.1)">
      <defs>
       <path id="ArialMT-57" d="M 1294 0 
L 78 4581 
L 700 4581 
L 1397 1578 
Q 1509 1106 1591 641 
Q 1766 1375 1797 1488 
L 2669 4581 
L 3400 4581 
L 4056 2263 
Q 4303 1400 4413 641 
Q 4500 1075 4641 1638 
L 5359 4581 
L 5969 4581 
L 4713 0 
L 4128 0 
L 3163 3491 
Q 3041 3928 3019 4028 
Q 2947 3713 2884 3491 
L 1913 0 
L 1294 0 
z
" transform="scale(0.015625)"/>
       <path id="ArialMT-6b" d="M 425 0 
L 425 4581 
L 988 4581 
L 988 1969 
L 2319 3319 
L 3047 3319 
L 1778 2088 
L 3175 0 
L 2481 0 
L 1384 1697 
L 988 1316 
L 988 0 
L 425 0 
z
" transform="scale(0.015625)"/>
       <path id="ArialMT-79" d="M 397 -1278 
L 334 -750 
Q 519 -800 656 -800 
Q 844 -800 956 -737 
Q 1069 -675 1141 -563 
Q 1194 -478 1313 -144 
Q 1328 -97 1363 -6 
L 103 3319 
L 709 3319 
L 1400 1397 
Q 1534 1031 1641 628 
Q 1738 1016 1872 1384 
L 2581 3319 
L 3144 3319 
L 1881 -56 
Q 1678 -603 1566 -809 
Q 1416 -1088 1222 -1217 
Q 1028 -1347 759 -1347 
Q 597 -1347 397 -1278 
z
" transform="scale(0.015625)"/>
       <path id="ArialMT-67" d="M 319 -275 
L 866 -356 
Q 900 -609 1056 -725 
Q 1266 -881 1628 -881 
Q 2019 -881 2231 -725 
Q 2444 -569 2519 -288 
Q 2563 -116 2559 434 
Q 2191 0 1641 0 
Q 956 0 581 494 
Q 206 988 206 1678 
Q 206 2153 378 2554 
Q 550 2956 876 3175 
Q 1203 3394 1644 3394 
Q 2231 3394 2613 2919 
L 2613 3319 
L 3131 3319 
L 3131 450 
Q 3131 -325 2973 -648 
Q 2816 -972 2473 -1159 
Q 2131 -1347 1631 -1347 
Q 1038 -1347 672 -1080 
Q 306 -813 319 -275 
z
M 784 1719 
Q 784 1066 1043 766 
Q 1303 466 1694 466 
Q 2081 466 2343 764 
Q 2606 1063 2606 1700 
Q 2606 2309 2336 2618 
Q 2066 2928 1684 2928 
Q 1309 2928 1046 2623 
Q 784 2319 784 1719 
z
" transform="scale(0.015625)"/>
      </defs>
      <use xlink:href="#ArialMT-57"/>
      <use xlink:href="#ArialMT-65" transform="translate(92.634766 0)"/>
      <use xlink:href="#ArialMT-65" transform="translate(148.25 0)"/>
      <use xlink:href="#ArialMT-6b" transform="translate(203.865234 0)"/>
      <use xlink:href="#ArialMT-64" transform="translate(253.865234 0)"/>
      <use xlink:href="#ArialMT-61" transform="translate(309.480469 0)"/>
      <use xlink:href="#ArialMT-79" transform="translate(365.095703 0)"/>
      <use xlink:href="#ArialMT-20" transform="translate(415.095703 0)"/>
      <use xlink:href="#ArialMT-6d" transform="translate(442.878906 0)"/>
      <use xlink:href="#ArialMT-6f" transform="translate(526.179688 0)"/>
      <use xlink:href="#ArialMT-72" transform="translate(581.794922 0)"/>
      <use xlink:href="#ArialMT-6e" transform="translate(615.095703 0)"/>
      <use xlink:href="#ArialMT-69" transform="translate(670.710938 0)"/>
      <use xlink:href="#ArialMT-6e" transform="translate(692.927734 0)"/>
      <use xlink:href="#ArialMT-67" transform="translate(748.542969 0)"/>
     </g>
    </g>
    <g id="line2d_28">
     <path d="M 277.849844 237.740251 
L 287.849844 237.740251 
L 297.849844 237.740251 
" style="fill: none; stroke: #ff7f0e; stroke-width: 2; stroke-linecap: square"/>
     <g>
      <use xlink:href="#m8e510217f5" x="287.849844" y="237.740251" style="fill: #ff7f0e; stroke: #ff7f0e"/>
     </g>
    </g>
    <g id="text_18">
     <!-- Weekday evening -->
     <g transform="translate(305.849844 241.240251) scale(0.1 -0.1)">
      <use xlink:href="#ArialMT-57"/>
      <use xlink:href="#ArialMT-65" transform="translate(92.634766 0)"/>
      <use xlink:href="#ArialMT-65" transform="translate(148.25 0)"/>
      <use xlink:href="#ArialMT-6b" transform="translate(203.865234 0)"/>
      <use xlink:href="#ArialMT-64" transform="translate(253.865234 0)"/>
      <use xlink:href="#ArialMT-61" transform="translate(309.480469 0)"/>
      <use xlink:href="#ArialMT-79" transform="translate(365.095703 0)"/>
      <use xlink:href="#ArialMT-20" transform="translate(415.095703 0)"/>
      <use xlink:href="#ArialMT-65" transform="translate(442.878906 0)"/>
      <use xlink:href="#ArialMT-76" transform="translate(498.494141 0)"/>
      <use xlink:href="#ArialMT-65" transform="translate(548.494141 0)"/>
      <use xlink:href="#ArialMT-6e" transform="translate(604.109375 0)"/>
      <use xlink:href="#ArialMT-69" transform="translate(659.724609 0)"/>
      <use xlink:href="#ArialMT-6e" transform="translate(681.941406 0)"/>
      <use xlink:href="#ArialMT-67" transform="translate(737.556641 0)"/>
     </g>
    </g>
    <g id="line2d_29">
     <path d="M 277.849844 252.002751 
L 287.849844 252.002751 
L 297.849844 252.002751 
" style="fill: none; stroke: #2ca02c; stroke-width: 2; stroke-linecap: square"/>
     <g>
      <use xlink:href="#made65def49" x="287.849844" y="252.002751" style="fill: #2ca02c; stroke: #2ca02c"/>
     </g>
    </g>
    <g id="text_19">
     <!-- Weekend morning -->
     <g transform="translate(305.849844 255.502751) scale(0.1 -0.1)">
      <use xlink:href="#ArialMT-57"/>
      <use xlink:href="#ArialMT-65" transform="translate(92.634766 0)"/>
      <use xlink:href="#ArialMT-65" transform="translate(148.25 0)"/>
      <use xlink:href="#ArialMT-6b" transform="translate(203.865234 0)"/>
      <use xlink:href="#ArialMT-65" transform="translate(253.865234 0)"/>
      <use xlink:href="#ArialMT-6e" transform="translate(309.480469 0)"/>
      <use xlink:href="#ArialMT-64" transform="translate(365.095703 0)"/>
      <use xlink:href="#ArialMT-20" transform="translate(420.710938 0)"/>
      <use xlink:href="#ArialMT-6d" transform="translate(448.494141 0)"/>
      <use xlink:href="#ArialMT-6f" transform="translate(531.794922 0)"/>
      <use xlink:href="#ArialMT-72" transform="translate(587.410156 0)"/>
      <use xlink:href="#ArialMT-6e" transform="translate(620.710938 0)"/>
      <use xlink:href="#ArialMT-69" transform="translate(676.326172 0)"/>
      <use xlink:href="#ArialMT-6e" transform="translate(698.542969 0)"/>
      <use xlink:href="#ArialMT-67" transform="translate(754.158203 0)"/>
     </g>
    </g>
    <g id="line2d_30">
     <path d="M 277.849844 266.265251 
L 287.849844 266.265251 
L 297.849844 266.265251 
" style="fill: none; stroke: #d62728; stroke-width: 2; stroke-linecap: square"/>
     <g>
      <use xlink:href="#m1f8f236e0f" x="287.849844" y="266.265251" style="fill: #d62728; stroke: #d62728"/>
     </g>
    </g>
    <g id="text_20">
     <!-- Weekend evening -->
     <g transform="translate(305.849844 269.765251) scale(0.1 -0.1)">
      <use xlink:href="#ArialMT-57"/>
      <use xlink:href="#ArialMT-65" transform="translate(92.634766 0)"/>
      <use xlink:href="#ArialMT-65" transform="translate(148.25 0)"/>
      <use xlink:href="#ArialMT-6b" transform="translate(203.865234 0)"/>
      <use xlink:href="#ArialMT-65" transform="translate(253.865234 0)"/>
      <use xlink:href="#ArialMT-6e" transform="translate(309.480469 0)"/>
      <use xlink:href="#ArialMT-64" transform="translate(365.095703 0)"/>
      <use xlink:href="#ArialMT-20" transform="translate(420.710938 0)"/>
      <use xlink:href="#ArialMT-65" transform="translate(448.494141 0)"/>
      <use xlink:href="#ArialMT-76" transform="translate(504.109375 0)"/>
      <use xlink:href="#ArialMT-65" transform="translate(554.109375 0)"/>
      <use xlink:href="#ArialMT-6e" transform="translate(609.724609 0)"/>
      <use xlink:href="#ArialMT-69" transform="translate(665.339844 0)"/>
      <use xlink:href="#ArialMT-6e" transform="translate(687.556641 0)"/>
      <use xlink:href="#ArialMT-67" transform="translate(743.171875 0)"/>
     </g>
    </g>
   </g>
  </g>
 </g>
 <defs>
  <clipPath id="p56821b8168">
   <rect x="47.720781" y="21.943125" width="569.23" height="258.926813"/>
  </clipPath>
 </defs>
</svg>
